<svg xmlns="http://www.w3.org/2000/svg" viewBox="0 0 1500 1500"><defs><style>.cls-1{fill:#b0c9f4;}.cls-1,.cls-2,.cls-3,.cls-7{stroke:#6899e0;}.cls-1,.cls-2,.cls-3,.cls-4,.cls-5,.cls-7{stroke-miterlimit:10;stroke-width:6px;}.cls-2,.cls-6{fill:#fff;}.cls-3{fill:#5891d6;}.cls-4,.cls-5,.cls-7{fill:none;}.cls-4,.cls-5{stroke:#fff;}.cls-5{stroke-dasharray:10 10;}</style></defs><title>Fiveloop_Feature-Icons_Color</title><g id="_003-SEA" data-name="003-SEA"><path class="cls-1" d="M326.48,162.7s-14.69-6.12-17.14,4.9a134.77,134.77,0,0,1-7.34,22l-18.36,4.9-18.36,7.34L242,220.23l-4.9,7.34s6.12,20.81,6.12,24.48-15.91,12.24-15.91,12.24v17.14L215.09,315.7l-11,30.6-26.93,31.83-26.93,23.26s3.67,26.93,18.36,31.83,23.26,12.24,23.26,12.24,26.93,36.72,26.93,51.41-1.22,46.51-2.45,52.63-8.57,28.15-8.57,28.15l26.93,6.12,41.62-23.26,23.26-25.7,11-6.12s22,9.79,22,29.38,8.57,71,8.57,71L355.86,656l11,26.93s3.67,19.58,3.67,23.26v30.6l-7.34,30.6v29.38L351,837.14l19.58,11s19.58,11,39.17,33S444,909.36,444,909.36l8.57,37.95L466,960.77V987.7l7.34,24.48h24.48l-4.9,19.58s49,23.26,63.65,30.6,29.38,12.24,33,9.79,25.7-14.69,25.7-14.69l-39.17-26.93s-9.79-22-7.34-45.29S559,926.5,559,926.5l-29.38-33s-56.31,7.34-66.1-7.34-20.81-19.58-20.81-19.58l-4.9-26.93L422,800.42l-24.48-14.69,22-82,11-41.62L464.8,656l-6.12,22,46.51,7.34s12.24,20.81,14.69,23.26,29.38,33,29.38,33l18.36-22,19.58,33,35.5,9.79-15.91,33,3.67,22,4.9,14.69L679,784.51V734.32l12.24-12.24,39.17,19.58,4.9-24.48,41.62-22V671.9s-9.79-22-11-45.29-12.24-83.23-12.24-83.23l-15.91-13.46-45.29-1.22L631.27,492,608,452.79s-6.12-24.48,0-31.83,24.48,7.34,24.48,4.9,12.24-40.39,12.24-40.39l13.46-28.15-42.84-33-11-15.91-42.84-1.22-18.36,40.39H499.07l-15.91-6.12-26.93,12.24v30.6l-35.5-2.45L391.36,372,377.89,351.2l12.24-18.36-24.48-29.38-42.84-4.9s1.22-17.14,9.79-29.38,39.17-24.48,39.17-24.48S368.1,210.43,368.1,208,326.48,162.7,326.48,162.7Z"/><path class="cls-2" d="M547.67,415.71a21.53,21.53,0,1,0-35.92,16l-9.68,17.51L513,495h26.36l10.9-45.78-9.68-17.51A21.47,21.47,0,0,0,547.67,415.71Z"/><path class="cls-2" d="M466.67,541.71a21.53,21.53,0,1,0-35.92,16l-9.68,17.51L432,621h26.36l10.9-45.78-9.68-17.51A21.47,21.47,0,0,0,466.67,541.71Z"/><path class="cls-2" d="M696.67,607.71a21.53,21.53,0,1,0-35.92,16l-9.68,17.51L662,687h26.36l10.9-45.78-9.68-17.51A21.47,21.47,0,0,0,696.67,607.71Z"/><path class="cls-2" d="M355.67,437.71a21.53,21.53,0,1,0-35.92,16l-9.68,17.51L321,517h26.36l10.9-45.78-9.68-17.51A21.47,21.47,0,0,0,355.67,437.71Z"/><polygon class="cls-1" points="625.15 1077.06 598.22 1089.3 598.22 1113.78 652.08 1105.21 642.28 1077.06 625.15 1077.06"/><path class="cls-1" d="M360.75,957.1l-50.19-7.34H286.09l19.58,63.65,69.77,29.38,14.69,30.6s7.34,35.5,8.57,40.39c.46,1.84,48.16,56.79,48.16,56.79l4.32,31.34,51.56,84.46,82,41.62H646v-66.1l-47.74-57.53L561.5,1150.5l-36.72-36.72-62.43-35.5Z"/><polygon class="cls-1" points="772.03 1057.47 751.22 1077.06 751.22 1100.31 745.1 1122.35 767.14 1139.48 784.27 1165.19 791.62 1198.23 797.74 1231.28 845.48 1236.18 877.3 1236.18 912.8 1245.97 933.61 1272.9 985.02 1243.53 992.36 1181.1 1016.84 1157.84 1026.63 1113.78 1042.55 1095.42 1080.49 1095.42 1068.25 1066.04 1049.89 1050.13 1038.87 985.25 1044.99 976.68 1062.13 955.88 1080.49 931.39 1048.67 925.27 1016.84 882.43 998.48 888.55 976.45 902.02 974 938.74 916.47 957.1 907.9 1006.06 861.39 1039.11 820.99 1055.02 798.96 1084.4 776.93 1057.47 772.03 1057.47"/><polygon class="cls-1" points="1175.97 467.48 1150.26 461.36 1122.11 510.32 1141.69 594.78 1141.69 625.38 1140.47 665.78 1164.95 684.14 1253.08 684.14 1265.32 700.05 1289.8 684.14 1276.34 611.92 1205.34 611.92 1195.55 544.6 1220.03 504.2 1198 444.23 1175.97 467.48"/><polygon class="cls-1" points="1211.46 709.84 1194.33 772.27 1251.86 812.66 1251.86 749.01 1251.86 724.53 1211.46 709.84"/><polygon class="cls-1" points="1300.82 700.05 1276.34 723.31 1276.34 767.37 1300.82 780.84 1330.2 740.44 1300.82 700.05"/><polygon class="cls-1" points="1321.63 800.42 1303.27 827.35 1289.8 864.07 1259.2 840.82 1228.6 832.25 1189.43 882.43 1259.2 895.9 1261.65 949.75 1337.54 949.75 1343.66 898.35 1349.78 828.57 1321.63 800.42"/><polygon class="cls-1" points="1131.9 1151.72 1103.75 1214.15 1103.75 1291.26 1152.71 1309.62 1164.95 1281.47 1189.43 1302.28 1234.72 1272.9 1270.22 1215.37 1206.57 1182.32 1270.22 1173.75 1303.27 1095.42 1303.27 1073.38 1221.26 1064.82 1153.93 1085.62 1131.9 1151.72"/><path class="cls-2" d="M646.67,1015.71a21.53,21.53,0,1,0-35.92,16l-9.68,17.51L612,1095h26.36l10.9-45.78-9.68-17.51A21.47,21.47,0,0,0,646.67,1015.71Z"/><path class="cls-2" d="M885.67,1109.71a21.53,21.53,0,1,0-35.92,16l-9.68,17.51L851,1189h26.36l10.9-45.78-9.68-17.51A21.47,21.47,0,0,0,885.67,1109.71Z"/><path class="cls-2" d="M955.67,940.71a21.53,21.53,0,1,0-35.92,16l-9.68,17.51L921,1020h26.36l10.9-45.78-9.68-17.51A21.47,21.47,0,0,0,955.67,940.71Z"/><path class="cls-2" d="M1182.67,458.71a21.53,21.53,0,1,0-35.92,16l-9.68,17.51L1148,538h26.36l10.9-45.78-9.68-17.51A21.47,21.47,0,0,0,1182.67,458.71Z"/><polygon class="cls-3" points="473.4 752.08 473.4 648.04 434.24 648.04 434.24 581.94 392.1 648.04 276.33 648.04 276.33 752.08 473.4 752.08"/><line class="cls-4" x1="378.4" y1="685.5" x2="449" y2="685.5"/><line class="cls-5" x1="378.4" y1="715.5" x2="449" y2="715.5"/><rect class="cls-2" x="305" y="673" width="54" height="54"/><polygon class="cls-3" points="970.14 768.5 970.14 872.55 930.97 872.55 930.97 938.64 888.83 872.55 773.07 872.55 773.07 768.5 970.14 768.5"/><line class="cls-4" x1="873.4" y1="807.5" x2="944" y2="807.5"/><line class="cls-5" x1="873.4" y1="837.5" x2="944" y2="837.5"/><rect class="cls-2" x="800" y="795" width="54" height="54"/><polygon class="cls-3" points="844.48 1339 844.48 1234.96 883.64 1234.96 883.64 1168.86 925.78 1234.96 1041.55 1234.96 1041.55 1339 844.48 1339"/><line class="cls-5" x1="945.4" y1="1275.5" x2="1016" y2="1275.5"/><line class="cls-4" x1="945.4" y1="1305.5" x2="1016" y2="1305.5"/><rect class="cls-2" x="872" y="1263" width="54" height="54"/><polygon class="cls-3" points="643.92 435.38 643.92 539.43 683.09 539.43 683.09 605.52 725.23 539.43 840.99 539.43 840.99 435.38 643.92 435.38"/><line class="cls-4" x1="744.4" y1="473.5" x2="815" y2="473.5"/><line class="cls-5" x1="744.4" y1="503.5" x2="815" y2="503.5"/><rect class="cls-2" x="671" y="461" width="54" height="54"/><polygon class="cls-3" points="1195.91 285.9 1195.91 389.95 1156.74 389.95 1156.74 456.05 1114.61 389.95 998.84 389.95 998.84 285.9 1195.91 285.9"/><line class="cls-4" x1="1098.4" y1="323.5" x2="1169" y2="323.5"/><line class="cls-5" x1="1098.4" y1="353.5" x2="1169" y2="353.5"/><rect class="cls-2" x="1025" y="311" width="54" height="54"/><polygon class="cls-3" points="664.39 1276.81 664.39 1172.77 625.22 1172.77 625.22 1106.67 583.08 1172.77 467.32 1172.77 467.32 1276.81 664.39 1276.81"/><line class="cls-5" x1="567.4" y1="1211.5" x2="638" y2="1211.5"/><line class="cls-4" x1="567.4" y1="1241.5" x2="638" y2="1241.5"/><rect class="cls-2" x="494" y="1199" width="54" height="54"/><polygon class="cls-3" points="368.1 260.62 368.1 364.66 328.93 364.66 328.93 430.76 286.79 364.66 171.03 364.66 171.03 260.62 368.1 260.62"/><line class="cls-4" x1="270" y1="296.5" x2="343.94" y2="296.5"/><line class="cls-5" x1="270" y1="328.32" x2="344" y2="328.32"/><rect class="cls-2" x="198" y="287" width="54" height="54"/><polygon class="cls-3" points="491.73 219 491.73 323.05 530.9 323.05 530.9 389.14 573.03 323.05 688.8 323.05 688.8 219 491.73 219"/><line class="cls-4" x1="591" y1="254.5" x2="662" y2="254.5"/><line class="cls-4" x1="591" y1="286.32" x2="625.02" y2="286.32"/><rect class="cls-2" x="516" y="244" width="54" height="54"/><circle class="cls-3" cx="1290" cy="206" r="72"/><polygon class="cls-6" points="1304.29 220.28 1304.34 220.26 1304.31 220.24 1325.02 170.98 1275.76 191.69 1275.73 191.66 1275.71 191.71 1275.67 191.73 1275.7 191.76 1254.98 241.02 1304.24 220.31 1304.27 220.34 1304.29 220.28"/><line class="cls-7" x1="1275.73" y1="191.73" x2="1304.27" y2="220.28"/></g></svg>