<svg id="_004-Verified" data-name="004-Verified" xmlns="http://www.w3.org/2000/svg" viewBox="0 0 1500 1500"><defs><style>.cls-1,.cls-10{fill:#fff;}.cls-1,.cls-3,.cls-8,.cls-9{stroke:#5891d6;}.cls-1,.cls-10,.cls-11,.cls-2,.cls-3,.cls-6,.cls-7,.cls-8,.cls-9{stroke-miterlimit:10;stroke-width:6px;}.cls-2,.cls-4,.cls-5{fill:#5891d6;}.cls-10,.cls-2,.cls-6,.cls-7{stroke:#6899e0;}.cls-11,.cls-3,.cls-6,.cls-8,.cls-9{fill:none;}.cls-4{font-size:36.25px;font-family:HelveticaNeueLTStd-Roman, Helvetica Neue LT Std;}.cls-7{fill:#b0c9f4;}.cls-8{stroke-dasharray:10 10;}.cls-9{stroke-dasharray:10.18 10.18;}.cls-11{stroke:#fff;}</style></defs><title>Fiveloop_Feature-Icons_Color</title><rect class="cls-1" x="253.84" y="286.39" width="865.48" height="1035.61"/><rect class="cls-2" x="313.94" y="336.32" width="181.16" height="181.16"/><line class="cls-3" x1="311.17" y1="569.57" x2="1061.99" y2="569.57"/><line class="cls-3" x1="686.58" y1="569.57" x2="686.58" y2="1322"/><text class="cls-4" transform="translate(311.15 638.27)">VERIFIED SKILL</text><text class="cls-4" transform="translate(307.95 1196.78)">SKILL / WEAKNESS</text><rect class="cls-5" x="311" y="727" width="230" height="27"/><rect class="cls-6" x="311.4" y="727.45" width="269.66" height="26.65"/><rect class="cls-7" x="746.27" y="727.45" width="69.28" height="26.65"/><rect class="cls-5" x="311" y="849" width="178" height="27"/><rect class="cls-6" x="311.4" y="848.96" width="269.66" height="26.65"/><rect class="cls-5" x="311" y="1092" width="135" height="27"/><rect class="cls-5" x="311" y="970" width="218" height="27"/><rect class="cls-6" x="311.4" y="970.47" width="269.66" height="26.65"/><rect class="cls-6" x="311.4" y="1091.97" width="269.66" height="26.65"/><line class="cls-8" x1="313.53" y1="673.62" x2="581.06" y2="673.62"/><line class="cls-3" x1="308.2" y1="708.27" x2="393.47" y2="708.27"/><line class="cls-3" x1="308.2" y1="829.77" x2="393.47" y2="829.77"/><line class="cls-3" x1="308.2" y1="951.28" x2="393.47" y2="951.28"/><line class="cls-3" x1="308.2" y1="1072.79" x2="393.47" y2="1072.79"/><line class="cls-3" x1="546.95" y1="429.01" x2="770.78" y2="429.01"/><line class="cls-3" x1="546.95" y1="473.78" x2="551.95" y2="473.78"/><line class="cls-9" x1="562.14" y1="473.78" x2="760.69" y2="473.78"/><line class="cls-3" x1="765.78" y1="473.78" x2="770.78" y2="473.78"/><polygon class="cls-7" points="1246.16 649.28 1139.15 646.28 1059.11 717.36 970.47 473.83 1157.52 405.75 1246.16 649.28"/><polygon class="cls-7" points="816.74 649.28 923.75 646.28 1003.79 717.36 1092.43 473.83 905.38 405.75 816.74 649.28"/><path class="cls-5" d="M1218.26,359.81c0,8.79-10.57,16.72-11.78,25.18-1.23,8.66,6.67,19.24,4.26,27.47s-14.84,13-18.41,20.82,1,20.3-3.7,27.55-17.88,8.25-23.54,14.78-4.75,19.73-11.29,25.4-19.45,2.88-26.74,7.58-10.07,17.59-18,21.2-19.42-2.73-27.79-.28-14.58,14-23.24,15.24c-8.45,1.2-17.8-8.12-26.59-8.12s-18.13,9.33-26.59,8.12c-8.66-1.23-15-12.83-23.24-15.24s-20,3.85-27.79.28-10.72-16.53-18-21.2-20.21-1.92-26.74-7.58-5.62-18.86-11.29-25.4-18.85-7.48-23.54-14.78-.08-19.64-3.7-27.55-16-12.45-18.41-20.82,5.49-18.8,4.26-27.47c-1.2-8.45-11.78-16.39-11.78-25.18s10.57-16.72,11.78-25.18c1.23-8.66-6.67-19.24-4.26-27.47s14.84-13,18.41-20.82-1-20.3,3.7-27.55,17.88-8.25,23.54-14.78,4.75-19.73,11.29-25.4,19.45-2.88,26.74-7.58,10.07-17.59,18-21.2,19.42,2.73,27.79.28,14.58-14,23.24-15.24c8.45-1.2,17.8,8.12,26.59,8.12s18.13-9.33,26.59-8.12c8.66,1.23,15,12.83,23.24,15.24s20-3.85,27.79-.28,10.72,16.53,18,21.2,20.21,1.92,26.74,7.58,5.62,18.86,11.29,25.4,18.85,7.48,23.54,14.78.08,19.64,3.7,27.55,16,12.45,18.41,20.82-5.49,18.8-4.26,27.47C1207.69,343.09,1218.26,351,1218.26,359.81Z"/><path class="cls-6" d="M1218.26,359.81c0,8.79-10.57,16.72-11.78,25.18-1.23,8.66,6.67,19.24,4.26,27.47s-14.84,13-18.41,20.82,1,20.3-3.7,27.55-17.88,8.25-23.54,14.78-4.75,19.73-11.29,25.4-19.45,2.88-26.74,7.58-10.07,17.59-18,21.2-19.42-2.73-27.79-.28-14.58,14-23.24,15.24c-8.45,1.2-17.8-8.12-26.59-8.12s-18.13,9.33-26.59,8.12c-8.66-1.23-15-12.83-23.24-15.24s-20,3.85-27.79.28-10.72-16.53-18-21.2-20.21-1.92-26.74-7.58-5.62-18.86-11.29-25.4-18.85-7.48-23.54-14.78-.08-19.64-3.7-27.55-16-12.45-18.41-20.82,5.49-18.8,4.26-27.47c-1.2-8.45-11.78-16.39-11.78-25.18s10.57-16.72,11.78-25.18c1.23-8.66-6.67-19.24-4.26-27.47s14.84-13,18.41-20.82-1-20.3,3.7-27.55,17.88-8.25,23.54-14.78,4.75-19.73,11.29-25.4,19.45-2.88,26.74-7.58,10.07-17.59,18-21.2,19.42,2.73,27.79.28,14.58-14,23.24-15.24c8.45-1.2,17.8,8.12,26.59,8.12s18.13-9.33,26.59-8.12c8.66,1.23,15,12.83,23.24,15.24s20-3.85,27.79-.28,10.72,16.53,18,21.2,20.21,1.92,26.74,7.58,5.62,18.86,11.29,25.4,18.85,7.48,23.54,14.78.08,19.64,3.7,27.55,16,12.45,18.41,20.82-5.49,18.8-4.26,27.47C1207.69,343.09,1218.26,351,1218.26,359.81Z"/><circle class="cls-10" cx="1031.45" cy="359.81" r="149.29"/><path class="cls-2" d="M935,361.8S948,327.22,985.6,327.22c10.78,0,11.69,1.79,22.82,1.79,10.18,0,20.31-7.14,20.31-20.63,0-12.56-9.26-22.21-22.53-22.21C981.69,286.16,935,303.61,935,361.8Z"/><path class="cls-2" d="M1003.32,454.2s-28.85-23.1-17.24-58.85c3.33-10.25,5.31-10.56,8.75-21.15,3.15-9.68-.51-21.52-13.34-25.69-11.94-3.88-24,1.94-28.08,14.56C945.83,386.38,948,436.21,1003.32,454.2Z"/><path class="cls-2" d="M1112.45,418.06s-30.89,20.3-61.3-1.79c-8.72-6.34-8.41-8.31-17.41-14.86-8.24-6-20.63-6.16-28.56,4.75-7.38,10.16-5.56,23.41,5.17,31.21C1030.19,451.78,1078.25,465.14,1112.45,418.06Z"/><path class="cls-2" d="M1111.74,304.32s9.77,35.65-20.65,57.74c-8.72,6.33-10.5,5.42-19.51,12-8.24,6-12.24,17.72-4.31,28.63,7.38,10.16,20.55,12.53,31.28,4.73C1118.39,393,1145.94,351.4,1111.74,304.32Z"/><path class="cls-2" d="M1002,268.6s36.92,1.73,48.54,37.48c3.33,10.25,1.91,11.67,5.35,22.25,3.15,9.68,13.07,17.11,25.89,12.94,11.94-3.88,18.26-15.67,14.16-28.29C1088.35,289.67,1057.32,250.62,1002,268.6Z"/><line class="cls-10" x1="540.56" y1="727.45" x2="540.56" y2="754.1"/><line class="cls-10" x1="489.4" y1="848.96" x2="489.4" y2="875.61"/><line class="cls-10" x1="528.83" y1="970.47" x2="528.83" y2="997.11"/><line class="cls-10" x1="445.7" y1="1091.97" x2="445.7" y2="1118.62"/><rect class="cls-7" x="311.4" y="1231.6" width="40.53" height="40.53"/><rect class="cls-7" x="387.26" y="1231.6" width="40.53" height="40.53"/><rect class="cls-7" x="463.12" y="1231.6" width="40.53" height="40.53"/><rect class="cls-7" x="538.99" y="1231.6" width="40.53" height="40.53"/><path class="cls-11" d="M356.49,518.62V485.14c0-19.27,31.53-34.89,41.53-34.89h14.3c10,0,41.53,15.62,41.53,34.89v33.48"/><path class="cls-7" d="M368.62,427.07H359.4a8.61,8.61,0,0,1-8.61-8.61V401.7a8.61,8.61,0,0,1,8.61-8.61h9.22Z"/><path class="cls-7" d="M441.72,427.07h9.22a8.61,8.61,0,0,0,8.61-8.61V401.7a8.61,8.61,0,0,0-8.61-8.61h-9.22Z"/><path class="cls-10" d="M420,443.42v13.34a14.83,14.83,0,0,1-14.83,14.83h0a14.83,14.83,0,0,1-14.83-14.83V443.42"/><path class="cls-1" d="M447.39,401.83c0,27.88-18.9,47.71-42.22,47.71S363,429.71,363,401.83s18.9-50.49,42.22-50.49S447.39,373.94,447.39,401.83Z"/><path class="cls-3" d="M414.34,427.86c0,4.47-4.11,8.1-9.17,8.1s-9.17-3.63-9.17-8.1"/><rect class="cls-7" x="376.4" y="399.52" width="21.41" height="16.53"/><rect class="cls-7" x="412.53" y="399.52" width="21.41" height="16.53"/><line class="cls-7" x1="397.81" y1="408.04" x2="412.53" y2="408.04"/><path class="cls-7" d="M372.4,518.4V494.47a6.24,6.24,0,0,1,6.24-6.24H431.7a6.24,6.24,0,0,1,6.24,6.24V518.4"/><line class="cls-11" x1="399.66" y1="507.84" x2="410.68" y2="507.84"/><path class="cls-3" d="M364.21,389.57s17.53,6.4,55.9-12.79c6.4,0,13.86,5.33,27.71,23.45"/><rect class="cls-7" x="550.15" y="362.93" width="85.27" height="26.65"/><circle class="cls-10" cx="781.44" cy="804.19" r="8.53"/><rect class="cls-7" x="746.27" y="1016.3" width="69.28" height="26.65"/><circle class="cls-10" cx="781.44" cy="857.49" r="8.53"/><circle class="cls-10" cx="781.44" cy="910.78" r="8.53"/><circle class="cls-10" cx="781.44" cy="964.07" r="8.53"/><circle class="cls-10" cx="781.44" cy="1086.65" r="8.53"/><circle class="cls-10" cx="781.44" cy="1139.94" r="8.53"/><line class="cls-3" x1="820.88" y1="804.19" x2="1013.8" y2="804.19"/><line class="cls-3" x1="820.88" y1="1139.94" x2="1013.8" y2="1139.94"/><line class="cls-3" x1="820.88" y1="857.49" x2="1056.43" y2="857.49"/><line class="cls-3" x1="820.88" y1="910.78" x2="939.19" y2="910.78"/><line class="cls-3" x1="820.88" y1="964.07" x2="939.19" y2="964.07"/><line class="cls-3" x1="820.88" y1="1086.65" x2="939.19" y2="1086.65"/><line class="cls-8" x1="770.78" y1="1251.85" x2="1038.32" y2="1251.85"/></svg>