<svg xmlns="http://www.w3.org/2000/svg" viewBox="0 0 1500 1500"><defs><style>.cls-1,.cls-4,.cls-7,.cls-8{fill:#fff;}.cls-2{fill:#5891d6;}.cls-10,.cls-11,.cls-12,.cls-13,.cls-14,.cls-3,.cls-6,.cls-9{fill:none;}.cls-3,.cls-4{stroke:#5891d6;}.cls-10,.cls-11,.cls-12,.cls-13,.cls-14,.cls-3,.cls-4,.cls-5,.cls-6,.cls-7,.cls-9{stroke-miterlimit:10;stroke-width:6px;}.cls-15,.cls-5{fill:#b0c9f4;}.cls-10,.cls-11,.cls-12,.cls-13,.cls-14,.cls-5,.cls-7,.cls-9{stroke:#6899e0;}.cls-6{stroke:#fff;}.cls-8{font-size:60px;font-family:HelveticaNeueLTStd-Roman, Helvetica Neue LT Std;}.cls-10{stroke-dasharray:10.16 20.31;}.cls-11{stroke-dasharray:10 20;}.cls-12{stroke-dasharray:11.4 22.8;}.cls-13{stroke-dasharray:10.64 21.27;}.cls-14{stroke-dasharray:10.47 20.94;}</style></defs><title>Fiveloop_Feature-Icons_Color</title><g id="_002-Resume" data-name="002-Resume"><rect class="cls-1" x="319" y="662.99" width="862" height="548.89" rx="58" ry="58"/><path class="cls-2" d="M1181,1103.88V721a58.17,58.17,0,0,0-58-58H377a58.17,58.17,0,0,0-58,58v382.89Z"/><rect class="cls-3" x="319" y="662.99" width="862" height="548.89" rx="58" ry="58"/><line class="cls-3" x1="319" y1="1101.53" x2="1181" y2="1101.53"/><polygon class="cls-4" points="890.05 1365.6 609.95 1365.6 647.67 1211.88 852.33 1211.88 890.05 1365.6"/><rect class="cls-5" x="487.82" y="1365.6" width="524.37" height="26.41"/><line class="cls-6" x1="395.39" y1="993.66" x2="1104.61" y2="993.66"/><line class="cls-6" x1="395.39" y1="886.9" x2="1104.61" y2="886.9"/><line class="cls-6" x1="395.39" y1="780.15" x2="1104.61" y2="780.15"/><circle class="cls-7" cx="462.08" cy="727.69" r="26.04"/><circle class="cls-7" cx="462.08" cy="833.96" r="26.04"/><circle class="cls-7" cx="462.08" cy="940.71" r="26.04"/><line class="cls-6" x1="515.89" y1="708.3" x2="570.57" y2="708.3"/><line class="cls-6" x1="515.89" y1="732.9" x2="626.99" y2="732.9"/><line class="cls-6" x1="515.89" y1="823.54" x2="570.57" y2="823.54"/><line class="cls-6" x1="515.89" y1="844.37" x2="626.99" y2="844.37"/><line class="cls-6" x1="515.89" y1="930.3" x2="570.57" y2="930.3"/><line class="cls-6" x1="515.89" y1="951.13" x2="626.99" y2="951.13"/><circle class="cls-7" cx="462.08" cy="1046.6" r="26.04"/><line class="cls-6" x1="515.89" y1="1036.19" x2="570.57" y2="1036.19"/><line class="cls-6" x1="515.89" y1="1057.02" x2="626.99" y2="1057.02"/><circle class="cls-5" cx="750" cy="1157.89" r="26.04"/><rect class="cls-5" x="675.49" y="712.03" width="31.12" height="31.12"/><rect class="cls-5" x="733.97" y="712.03" width="31.12" height="31.12"/><rect class="cls-5" x="792.44" y="712.03" width="31.12" height="31.12"/><rect class="cls-5" x="675.49" y="818.6" width="31.12" height="31.12"/><rect class="cls-5" x="733.97" y="818.6" width="31.12" height="31.12"/><rect class="cls-5" x="675.49" y="925.17" width="31.12" height="31.12"/><rect class="cls-5" x="675.49" y="1030.8" width="31.12" height="31.12"/><rect class="cls-5" x="733.97" y="1030.8" width="31.12" height="31.12"/><polyline class="cls-6" points="1034.82 727.12 1055.57 747.87 1095.18 717.69"/><polyline class="cls-6" points="1034.82 828.03 1055.57 848.78 1095.18 818.6"/><polyline class="cls-6" points="1034.82 928.95 1055.57 949.69 1095.18 919.51"/><polyline class="cls-6" points="1034.82 1029.86 1055.57 1050.61 1095.18 1020.43"/><rect class="cls-2" x="560" y="105" width="380" height="114"/><text class="cls-8" transform="translate(625.56 185.87)">RESUME</text><path class="cls-9" d="M193,178v82h88V472.79A45.21,45.21,0,0,0,326.21,518H704.5A45.5,45.5,0,0,1,750,563.5"/><path class="cls-9" d="M750,493.5A45.5,45.5,0,0,1,795.5,448h442.94a45.34,45.34,0,0,0,45.34-45.34V341H1382V282"/><path class="cls-9" d="M750.21,356.5a45.5,45.5,0,0,1,45.5-45.5H994V248h150V188"/><line class="cls-3" x1="750" y1="661" x2="750" y2="218"/><polyline class="cls-3" points="820 590 750 660 680 590"/><line class="cls-9" x1="432" y1="518" x2="432" y2="523"/><path class="cls-10" d="M431.87,543.31A45.19,45.19,0,0,1,386.81,585H251.16"/><line class="cls-9" x1="241" y1="585" x2="236" y2="585"/><circle class="cls-7" cx="235.71" cy="584.61" r="13.8"/><polyline class="cls-9" points="599 518 599 447 428 447 428 371"/><circle class="cls-7" cx="427.71" cy="373.61" r="13.8"/><circle class="cls-7" cx="191.71" cy="177.61" r="13.8"/><polyline class="cls-9" points="281 409 119 409 119 321"/><rect class="cls-5" x="226.84" y="378" width="109.32" height="62"/><rect class="cls-2" x="956.71" y="287" width="77.58" height="44"/><rect class="cls-2" x="392.71" y="496" width="77.58" height="44"/><circle class="cls-7" cx="118.71" cy="320.61" r="13.8"/><line class="cls-11" x1="519" y1="447" x2="519" y2="314"/><circle class="cls-7" cx="518.71" cy="313.61" r="13.8"/><path class="cls-9" d="M902,448v61.05A46,46,0,0,0,947.95,555H1084"/><circle class="cls-7" cx="1083.71" cy="554.61" r="13.8"/><circle class="cls-7" cx="1381.71" cy="281.61" r="13.8"/><circle class="cls-7" cx="1143.71" cy="187.61" r="13.8"/><line class="cls-9" x1="1084" y1="448" x2="1084" y2="443"/><line class="cls-12" x1="1084" y1="420.2" x2="1084" y2="397.4"/><polyline class="cls-9" points="1084 386 1084 381 1089 381"/><line class="cls-13" x1="1110.27" y1="381" x2="1195.36" y2="381"/><polyline class="cls-9" points="1206 381 1211 381 1211 376"/><line class="cls-14" x1="1211" y1="355.06" x2="1211" y2="208.47"/><line class="cls-9" x1="1211" y1="198" x2="1211" y2="193"/><rect class="cls-5" x="1029.84" y="416" width="109.32" height="62"/><circle class="cls-7" cx="1210.71" cy="187.61" r="13.8"/><line class="cls-9" x1="1240.95" y1="663.05" x2="1218" y2="686"/><line class="cls-9" x1="1286" y1="618" x2="1263.05" y2="640.95"/><line class="cls-9" x1="1242.61" y1="642.61" x2="1218" y2="618"/><line class="cls-9" x1="1286" y1="686" x2="1263.05" y2="663.05"/><polyline class="cls-5" points="167.65 991 167.65 1066.54 113 1066.54 200.5 1169.13 288 1066.54 233.35 1066.54 233.35 991"/><polyline class="cls-15" points="167.61 823.5 167.61 735.86 233.35 735.87 233.35 927.54 288 927.54 200.5 1030.13 113 927.54 167.65 927.54 167.65 735.39"/><polyline class="cls-9" points="167.65 736 167.65 927.54 113 927.54 200.5 1030.13 288 927.54 233.35 927.54 233.35 735.87"/></g></svg>