<svg xmlns="http://www.w3.org/2000/svg" viewBox="0 0 1500 1500"><defs><style>.cls-1,.cls-10,.cls-2,.cls-3,.cls-4{fill:none;}.cls-1,.cls-11,.cls-3,.cls-4,.cls-5{stroke:#6899e0;}.cls-1,.cls-10,.cls-11,.cls-13,.cls-2,.cls-3,.cls-4,.cls-5,.cls-9{stroke-miterlimit:10;}.cls-1,.cls-10,.cls-11,.cls-2,.cls-3,.cls-4,.cls-5,.cls-9{stroke-width:6px;}.cls-1{stroke-dasharray:10 20;}.cls-2,.cls-9{stroke:#5891d6;}.cls-4{stroke-dasharray:9.77 19.55;}.cls-5{fill:#b0c9f4;}.cls-13,.cls-6{fill:#5891d6;}.cls-7{font-size:60px;}.cls-11,.cls-12,.cls-7,.cls-8,.cls-9{fill:#fff;}.cls-12,.cls-7{font-family:HelveticaNeueLTStd-Roman, Helvetica Neue LT Std;}.cls-10{stroke:#fff;}.cls-12{font-size:30px;}.cls-13{stroke:#a6d3ff;}</style></defs><title>Fiveloop_Feature-Icons_Color</title><g id="_001_PostJob" data-name="001_PostJob"><line class="cls-1" x1="177" y1="902" x2="750" y2="739"/><line class="cls-1" x1="753" y1="1339" x2="753" y2="752"/><line class="cls-2" x1="750.5" y1="210" x2="750.5" y2="744"/><line class="cls-1" x1="218" y1="1254" x2="750" y2="750"/><line class="cls-1" x1="1304" y1="1202" x2="752" y2="735"/><line class="cls-1" x1="1324" y1="925" x2="752" y2="735"/><line class="cls-1" x1="1307" y1="612" x2="752" y2="735"/><line class="cls-1" x1="752" y1="735" x2="1203" y2="254"/><line class="cls-1" x1="301" y1="256" x2="750" y2="750"/><line class="cls-3" x1="219.89" y1="569.26" x2="224.66" y2="570.75"/><line class="cls-4" x1="243.33" y1="576.55" x2="738.05" y2="730.31"/><line class="cls-3" x1="747.38" y1="733.21" x2="752.16" y2="734.69"/><line class="cls-3" x1="1363.87" y1="516.13" x2="1347" y2="533"/><line class="cls-3" x1="1397" y1="483" x2="1380.13" y2="499.87"/><line class="cls-3" x1="1365.1" y1="501.1" x2="1347" y2="483"/><line class="cls-3" x1="1397" y1="533" x2="1380.13" y2="516.13"/><line class="cls-3" x1="127.87" y1="1380.13" x2="111" y2="1397"/><line class="cls-3" x1="161" y1="1347" x2="144.13" y2="1363.87"/><line class="cls-3" x1="129.1" y1="1365.1" x2="111" y2="1347"/><line class="cls-3" x1="161" y1="1397" x2="144.13" y2="1380.13"/><line class="cls-3" x1="121.37" y1="264.63" x2="104.5" y2="281.5"/><line class="cls-3" x1="154.5" y1="231.5" x2="137.63" y2="248.37"/><line class="cls-3" x1="122.6" y1="249.6" x2="104.5" y2="231.5"/><line class="cls-3" x1="154.5" y1="281.5" x2="137.63" y2="264.63"/><rect class="cls-5" x="190.28" y="203" width="222.44" height="106"/><rect class="cls-5" x="1211" y="1149" width="185" height="105.31"/><rect class="cls-5" x="1246.67" y="888" width="149.65" height="71.31"/><rect class="cls-5" x="106" y="1197.1" width="225" height="113.98"/><rect class="cls-5" x="676" y="1282.6" width="155" height="112.96"/><rect class="cls-5" x="106" y="865.86" width="143" height="72.44"/><rect class="cls-6" x="633.5" y="107" width="233" height="100.15"/><text class="cls-7" transform="translate(691.08 177.87)">JOB</text><rect class="cls-5" x="1088.08" y="199" width="230.83" height="110"/><rect class="cls-5" x="1219" y="570" width="177" height="84"/><rect class="cls-5" x="107" y="531.31" width="151.88" height="77" transform="translate(-0.65 0.21) rotate(-0.07)"/><path class="cls-8" d="M428,943.69,351,1038.56c-15.6,19.21-1.93,47.92,22.82,47.92h757c24.75,0,38.42-28.71,22.82-47.92l-77.05-94.87"/><path class="cls-5" d="M345.2,1050c-4.36,17.44,8.44,36.48,28.59,36.48h757c20.15,0,33-19,28.59-36.48Z"/><path class="cls-2" d="M428,943.69,351,1038.56c-15.6,19.21-1.93,47.92,22.82,47.92h757c24.75,0,38.42-28.71,22.82-47.92l-77.05-94.87"/><line class="cls-2" x1="343" y1="1050.2" x2="1162" y2="1050.77"/><line class="cls-2" x1="1044.31" y1="1050.77" x2="975.83" y2="950.34"/><line class="cls-2" x1="897.08" y1="1050.77" x2="862.84" y2="950.34"/><line class="cls-2" x1="749.86" y1="1050.77" x2="749.86" y2="950.34"/><line class="cls-2" x1="602.63" y1="1050.77" x2="636.87" y2="950.34"/><line class="cls-2" x1="455.41" y1="1050.77" x2="523.89" y2="950.34"/><rect class="cls-9" x="426.04" y="501.7" width="652.53" height="448.97" rx="12" ry="12"/><rect class="cls-5" x="577.7" y="449.81" width="349.2" height="552.76" transform="translate(1478.48 -26.11) rotate(90)"/><path class="cls-6" d="M888.54,754.86V699.51l-37.48-2.42a105.26,105.26,0,0,0-8.35-20.19l24.78-28.21-39.13-39.14-28.21,24.78a105,105,0,0,0-20.2-8.34l-2.42-37.49H722.19L719.77,626a104.77,104.77,0,0,0-20.2,8.34l-28.2-24.78-39.14,39.14L657,676.9a104.94,104.94,0,0,0-8.35,20.19l-37.48,2.42v55.34l37.48,2.42A104.59,104.59,0,0,0,657,777.47l-24.78,28.21,39.14,39.14L699.57,820a105,105,0,0,0,20.19,8.34l2.42,37.48h55.34l2.42-37.49a105,105,0,0,0,20.2-8.34l28.2,24.78,39.14-39.13-24.78-28.22a105.58,105.58,0,0,0,8.35-20.19Z"/><path class="cls-8" d="M765.86,731.92a35.23,35.23,0,0,0,15.79-19.29c4.61.77,9.34-3.4,10.65-9.5S790.93,691,786.23,690a6.85,6.85,0,0,0-3.17.09c10.87-14.4.26-37,.26-37s-7.6,4.55-24.76,3.29c-44.47-3.29-42.69,33.7-42.69,33.7a6.88,6.88,0,0,0-3.18-.09c-4.7,1-7.43,6.9-6.08,13.14s6,10.28,10.66,9.5a35.17,35.17,0,0,0,16.07,19.43c0,25.7-31.66,24.37-31.66,46.1V795H798V778.16C798,756.25,765.86,758,765.86,731.92Z"/><line class="cls-10" x1="517.04" y1="865.89" x2="614" y2="865.89"/><line class="cls-10" x1="536.29" y1="630.93" x2="517.04" y2="650.19"/><line class="cls-10" x1="574.1" y1="593.12" x2="554.85" y2="612.38"/><line class="cls-10" x1="537.69" y1="613.78" x2="517.04" y2="593.12"/><line class="cls-10" x1="574.1" y1="650.19" x2="554.85" y2="630.93"/><polygon class="cls-11" points="824.27 730.71 951.34 781.53 915.7 805.49 954.98 848.03 942.91 859.19 930.84 870.34 891.54 827.79 864.83 861.41 824.27 730.71"/><text class="cls-12" transform="translate(517.24 844.75)">POST</text><line class="cls-3" x1="101" y1="973" x2="177" y2="973"/><line class="cls-3" x1="101" y1="998" x2="254" y2="998"/><line class="cls-3" x1="855" y1="1314" x2="932" y2="1314"/><line class="cls-3" x1="855" y1="1339" x2="989" y2="1339"/><line class="cls-3" x1="855" y1="1364" x2="989" y2="1364"/><line class="cls-3" x1="1207" y1="1282" x2="1305.28" y2="1282"/><line class="cls-3" x1="1283.08" y1="1306" x2="1399" y2="1306"/><line class="cls-3" x1="1301.5" y1="862" x2="1401" y2="862"/><line class="cls-3" x1="1242" y1="862" x2="1287.5" y2="862"/><line class="cls-3" x1="1207" y1="1306" x2="1259.14" y2="1306"/><rect class="cls-5" x="106" y="633" width="40" height="40"/><rect class="cls-5" x="1353" y="200" width="43.6" height="43.6"/><rect class="cls-5" x="1353" y="265.4" width="43.6" height="43.6"/><line class="cls-3" x1="170" y1="641" x2="260" y2="641"/><line class="cls-3" x1="170" y1="666" x2="260" y2="666"/><line class="cls-3" x1="441" y1="256" x2="531" y2="256"/><line class="cls-3" x1="441" y1="231" x2="491" y2="231"/><line class="cls-3" x1="441" y1="281" x2="531" y2="281"/><rect class="cls-5" x="359" y="1197" width="114" height="114"/><polyline class="cls-10" points="378.9 1252.9 405.1 1279.1 455.21 1228.21"/><path class="cls-13" d="M1014.76,400C951.38,400,900,444.73,900,499.9c0,24,9.78,46.12,26,63.36a44.64,44.64,0,0,1-14.25,34.68c20.35,7,40.86-8,45.41-11.63a127.49,127.49,0,0,0,57.57,13.49c63.37,0,114.75-44.72,114.75-99.89S1078.14,400,1014.76,400Z"/><path class="cls-8" d="M978.35,544.68a12.74,12.74,0,0,1-12.73,12.74h0a12.74,12.74,0,0,1-12.74-12.74V490.4a12.74,12.74,0,0,1,12.74-12.74h0a12.73,12.73,0,0,1,12.73,12.74Z"/><path class="cls-8" d="M993.54,475.57c5.2-4.42,12.39-12.85,17.79-23.08,7.63-14.44,14.26-26.34,23.59-24.65,18.7,3.38,9,32.67,3.2,43.87h16.51a20,20,0,0,1,20,20v54.94c0,11-6.45,15-17.48,15h-50.78a20,20,0,0,1-20-20v-50S984.35,483.38,993.54,475.57Z"/><polyline class="cls-3" points="680 276 750 206 820 276"/></g></svg>